<?xml version="1.0" encoding="UTF-8"?>
<svg id="Layer_1" xmlns="http://www.w3.org/2000/svg" version="1.1" viewBox="0 0 361.66 371.67">
  <!-- Generator: Adobe Illustrator 30.5.1, SVG Export Plug-In . SVG Version: 2.1.4 Build 3)  -->
  <defs>
    <style>
      .st0 {
        fill: #D4AF37;
      }

      .st1 {
        fill: #fff;
      }
    </style>
  </defs>
  <rect width="361.66" height="371.67" fill="#0f0e0a"/><g>
    <path class="st1" d="M279.86,193.76c5.46,3.67,11.78,4.88,18.08,7.3-6.43-.81-13.49-.84-19.63-3.77-6.62-1.9-12.32-5.51-18.38-8.76-9.53-6.7-18.01-14.54-25.82-23.43-2.42,1.76-4.97,3.4-6.84,5.63-3.17,2.81-5.26,6.59-7.23,10.21-1.88,3.77-2.92,7.87-3.89,12.04-.58,4.33-1.19,8.6-.91,13.09.51,17.83,6.39,36.07,14.61,52.7,2.13,4.19,4.34,8.2,6.65,11.96,2.79,3.96,5.4,7.82,7.93,12.8,2.56,4.7,5.25,9.3,6.13,14.51,1.17,5.1,3.06,10.01,3.03,15.16.18,5.11,1.17,10.19.54,15.19-.37,4.99-.56,10.02-1.72,14.91-1.75,9.78-4.36,19.37-8.29,28.37,1.64-9.68,2.84-19.29,2.9-28.9.46-4.79-.51-9.56-.48-14.26.13-4.77-1.3-9.32-1.92-13.9-.38-4.7-2.6-8.82-4-13.11-1.17-4.44-3.93-7.99-6.4-11.63-2.13-3.62-5.08-7.72-8.15-11.59-3.08-4.36-5.78-8.76-8.27-13.13-9.41-17.95-16.62-37.61-16.7-58.86-.1-10.5,1.62-21.7,7.25-31.41,2.82-4.74,5.97-9.47,10.22-13.01,3.82-4.11,8.83-6.4,13.4-9.19l4.34-2.65,2.88,4.39c6.7,10.3,15.42,20.1,24.98,28.41,5.04,3.83,9.89,8.19,15.68,10.94ZM134.37,338.62c-10.13-6.35-20.55-14.02-30.57-23.25-9.26-9.13-20.23-20.13-28.32-31.88-8.43-12.02-15.57-25.55-19.37-40.31-4.04-14.72-4.74-30.34-3.02-45.8,3.97-30.82,16.26-61.5,33.56-84.98,18.25-23.11,39.34-42.59,60.46-53.16,21.29-10.81,40.9-16.34,54.69-19.39,13.82-2.93,21.95-3.64,21.95-3.64,0,0-8.13-.02-22.28,1.7-14.01,2.1-34.56,5.03-57.19,15.43-11.25,5.07-23.09,12.21-33.92,21.44-10.69,8.86-22.19,19.09-31.58,31.56-18.97,25.17-32.09,56.41-36.95,89.71-4.82,33.72,6.44,68.57,25.32,93.47,9.61,13.02,19.46,23.06,30.68,32.72,10.99,9.06,22.27,16.44,33.12,22.43,21.84,11.81,42.07,16.75,56.11,19.1,14.09,2.37,22.26,2.09,22.26,2.09,0,0-8.17-.48-21.8-4.19-13.72-3.52-32.59-10.9-53.14-23.03ZM359.82,185.45c-3.14-12.24-12.05-20.34-17.7-29.49-5.84-16.99-9.48-34.82-16.29-51.72-3.17-8.58-7.13-16.87-11.29-25.22-3.82-7.5-8.35-14.76-14.66-21.65-1.75-8.08-3.32-16.53-4.42-24.78-.96-8.79-1.55-17.82.18-25.67l1.53-6.92-5.91,1.46c-10.37,2.54-19.99,6.32-28.73,12.25-8.6,5.68-16.2,14.33-17.89,24.71l1.4.33c3.08-9.45,10.61-16.25,19.16-20.64,6.52-3.37,13.7-5.6,20.89-7.23-2.3,7.46-3.28,15.04-3.33,22.37-.18,9.81.74,19.18,2.47,28.89l.31,1.88,1.82,1.98c10.33,11.36,19.1,27.75,27.19,43.25,7.9,15.87,17.34,31.49,23.25,48.4l.11.34.19.26c6.7,9.05,13.96,18.1,13.87,28.54.3,5.1-.2,10.23-1.74,14.88-.84,2.29-1.52,4.53-2.64,6.42-.97,1.73-2.48,4-3.12,4.41-1.53,1.44-3.38,2.18-5.91,3.55-2.25,1.31-4.58,2.13-6.88,3-4.59,1.8-9.25,2.73-13.5,2.11-8.69-.64-15.77-9.97-19.53-20.32l-.71.1-.74.08c-.31,5.88.96,11.76,3.61,17.48,2.95,5.46,8.28,10.5,14.97,12.58,6.69,2.3,13.54,1.27,19.53-.34,3-.89,5.97-1.84,8.65-3.24,2.43-1.15,5.93-2.44,8.52-4.89,3.58-3.31,4.98-5.96,6.45-9.23,1.27-3.17,2.12-6.33,2.44-9.54.69-6.26.04-12.51-1.57-18.41Z"/>
    
    
    
    
    
    
    
    
    
    
  </g>
  <polygon class="st0" points="215.7 13.32 207.33 21.51 212.6 32.34 202.1 26.64 193.72 34.83 195.72 23.04 185.22 17.34 196.83 15.81 198.83 4.03 204.1 14.86 215.7 13.32"/>
  <polygon class="st0" points="152.06 25.87 145.6 35.63 153.02 45.11 141.56 41.74 135.09 51.52 134.56 39.57 123.1 36.2 134.13 32.27 133.61 20.33 141.03 29.81 152.06 25.87"/>
  <polygon class="st0" points="77.49 58.85 87.68 64.61 96.62 56.55 94.06 68.22 104.26 73.99 92.38 75.35 89.81 87.02 85.12 76.29 73.25 77.64 82.19 69.57 77.49 58.85"/>
  <polygon class="st0" points="54.36 100.86 54.92 112.55 66.51 115.8 55.28 119.87 55.84 131.57 48.35 122.25 37.12 126.32 43.69 116.62 36.2 107.3 47.79 110.55 54.36 100.86"/>
  <polygon class="st0" points="27.01 157.94 30.72 169.05 42.76 169.05 33.04 176 36.74 187.11 27.01 180.17 17.29 187.11 21 176 11.28 169.05 23.32 169.05 27.01 157.94"/>
</svg>